<svg xmlns="http://www.w3.org/2000/svg" xmlns:xlink="http://www.w3.org/1999/xlink" version="1.1" x="0px" y="0px" viewBox="0 0 512 640" style="enable-background:new 0 0 512 512;" xml:space="preserve"><g><g><g><path d="M486,490H26c-2.209,0-4-1.791-4-4V26c0-2.209,1.791-4,4-4h460c2.209,0,4,1.791,4,4v460C490,488.209,488.209,490,486,490z      M30,482h452V30H30V482z"/></g><g><path d="M486,150H26c-2.209,0-4-1.791-4-4V26c0-2.209,1.791-4,4-4h460c2.209,0,4,1.791,4,4v120C490,148.209,488.209,150,486,150z      M30,142h452V30H30V142z"/></g><g><path d="M96,110c-13.234,0-24-10.766-24-24s10.766-24,24-24s24,10.766,24,24S109.234,110,96,110z M96,70c-8.822,0-16,7.178-16,16     s7.178,16,16,16s16-7.178,16-16S104.822,70,96,70z"/></g><g><path d="M186,110c-13.234,0-24-10.766-24-24s10.766-24,24-24s24,10.766,24,24S199.234,110,186,110z M186,70     c-8.822,0-16,7.178-16,16s7.178,16,16,16s16-7.178,16-16S194.822,70,186,70z"/></g><g><path d="M276,110c-13.232,0-24-10.766-24-24s10.768-24,24-24s24,10.766,24,24S289.232,110,276,110z M276,70     c-8.822,0-16,7.178-16,16s7.178,16,16,16s16-7.178,16-16S284.822,70,276,70z"/></g><g><path d="M256,430c-62.86,0-114-51.141-114-114c0-62.86,51.14-114,114-114c62.859,0,114,51.14,114,114     C370,378.859,318.859,430,256,430z M256,210c-58.449,0-106,47.552-106,106s47.551,106,106,106c58.448,0,106-47.552,106-106     S314.448,210,256,210z"/></g><g><path d="M276,370h-40c-24.262,0-44-19.738-44-44c0-19.057,12.205-35.796,30.044-41.74C222.953,266.316,237.836,252,256,252     s33.047,14.316,33.956,32.26C307.794,290.204,320,306.943,320,326C320,350.262,300.262,370,276,370z M256,260     c-14.336,0-26,11.663-26,26c0,0.365,0.014,0.729,0.029,1.089c0.078,1.886-1.174,3.569-3.002,4.038     C211.114,295.21,200,309.55,200,326c0,19.852,16.149,36,36,36h40c19.852,0,36-16.148,36-36c0-16.449-11.113-30.79-27.025-34.873     c-1.822-0.468-3.072-2.145-3.002-4.023C281.986,286.736,282,286.37,282,286C282,271.663,270.337,260,256,260z"/></g></g></g></svg>