<svg xmlns="http://www.w3.org/2000/svg" xmlns:xlink="http://www.w3.org/1999/xlink" version="1.1" x="0px" y="0px" viewBox="0 0 16 20" style="enable-background:new 0 0 16 16;" xml:space="preserve"><g><polygon fill="#676767" points="10,1.063 10,5 14,5  "/><path fill="#676767" d="M10,6C9.448,6,9,5.615,9,5.063V1H4C3.448,1,3,1.51,3,2.063v12C3,14.615,3.448,15,4,15h9c0.552,0,1-0.385,1-0.938V6H10z    M12,9h-0.485l-1,4H9.466L8.5,10.424L7.534,13H6.485l-1-4H5V8h2v1H6.515l0.58,2.321L7.966,9h1.068l0.87,2.321L10.484,9H10V8h2V9z"/></g></svg>