<svg xmlns="http://www.w3.org/2000/svg" xmlns:xlink="http://www.w3.org/1999/xlink" version="1.1" x="0px" y="0px" viewBox="0 0 512 640"  xml:space="preserve"><g><g><path fill="#ffffff" d="M486,16H26c-5.522,0-10,4.477-10,10c0,10.717,0,446.316,0,460c0,5.522,4.478,10,10,10h460c5.523,0,10-4.478,10-10    c0-13.551,0-448.837,0-460C496,20.477,491.523,16,486,16z M36,36h440v100H36V36z M36,476V156h440v320H36z"/><path fill="#ffffff"  d="M96,56c-16.542,0-30,13.458-30,30s13.458,30,30,30s30-13.458,30-30S112.542,56,96,56z M96,96c-5.514,0-10-4.486-10-10    s4.486-10,10-10c5.515,0,10,4.486,10,10S101.515,96,96,96z"/><path fill="#ffffff"  d="M186,56c-16.542,0-30,13.458-30,30s13.458,30,30,30s30-13.458,30-30S202.542,56,186,56z M186,96c-5.514,0-10-4.486-10-10    s4.486-10,10-10c5.515,0,10,4.486,10,10S191.515,96,186,96z"/><path fill="#ffffff"  d="M276,56c-16.541,0-30,13.458-30,30s13.459,30,30,30c16.543,0,30-13.458,30-30S292.543,56,276,56z M276,96    c-5.514,0-10-4.486-10-10s4.486-10,10-10c5.515,0,10,4.486,10,10S281.515,96,276,96z"/><path fill="#ffffff"  d="M256,196c-66.168,0-120,53.832-120,120s53.832,120,120,120s120-53.832,120-120S322.168,196,256,196z M256,416    c-55.14,0-100-44.859-100-100s44.86-100,100-100c55.141,0,100,44.859,100,100S311.141,416,256,416z"/><path fill="#ffffff"  d="M295.545,279.961C292.627,260.759,276.005,246,256,246c-20.004,0-36.626,14.759-39.545,33.961    C198.208,287.688,186,305.687,186,326c0,27.57,22.43,50,50,50h40c27.57,0,50-22.43,50-50    C326,305.687,313.792,287.688,295.545,279.961z M276,356h-40c-16.542,0-30-13.458-30-30c0-13.71,9.26-25.66,22.517-29.061    c4.571-1.173,7.7-5.382,7.507-10.097C235.545,275.382,244.74,266,256,266c11.221,0,20.453,9.333,19.977,20.854    c-0.188,4.711,2.941,8.913,7.508,10.085C296.742,300.34,306,312.29,306,326C306,342.542,292.543,356,276,356z"/></g></g></svg>