<svg xmlns="http://www.w3.org/2000/svg" xmlns:xlink="http://www.w3.org/1999/xlink" version="1.1" x="0px" y="0px" viewBox="0 0 512 640" style="enable-background:new 0 0 512 512;" xml:space="preserve"><g><g><path fill="#ffffff" d="M486,16H26c-5.522,0-10,4.477-10,10c0,10.717,0,446.316,0,460c0,5.522,4.478,10,10,10h460c5.523,0,10-4.478,10-10    c0-13.551,0-448.837,0-460C496,20.477,491.523,16,486,16z M36,36h440v100H36V36z M36,476V156h440v320H36z"/><path fill="#ffffff" d="M96,56c-16.542,0-30,13.458-30,30s13.458,30,30,30s30-13.458,30-30S112.542,56,96,56z M96,96c-5.514,0-10-4.486-10-10    s4.486-10,10-10c5.515,0,10,4.486,10,10S101.515,96,96,96z"/><path fill="#ffffff" d="M186,56c-16.542,0-30,13.458-30,30s13.458,30,30,30s30-13.458,30-30S202.542,56,186,56z M186,96c-5.514,0-10-4.486-10-10    s4.486-10,10-10c5.515,0,10,4.486,10,10S191.515,96,186,96z"/><path fill="#ffffff" d="M276,56c-16.541,0-30,13.458-30,30s13.459,30,30,30c16.543,0,30-13.458,30-30S292.543,56,276,56z M276,96    c-5.514,0-10-4.486-10-10s4.486-10,10-10c5.515,0,10,4.486,10,10S281.515,96,276,96z"/><path fill="#ffffff" d="M256,196c-66.168,0-120,53.832-120,120s53.832,120,120,120s120-53.832,120-120S322.168,196,256,196z M256,416    c-55.14,0-100-44.859-100-100s44.86-100,100-100c55.141,0,100,44.859,100,100S311.141,416,256,416z"/><path fill="#ffffff" d="M266,311.857V246c0-5.523-4.477-10-10-10c-5.522,0-10,4.477-10,10v70c0,2.652,1.054,5.195,2.929,7.071l40.001,40    c3.905,3.905,10.236,3.904,14.143,0c3.904-3.905,3.904-10.237,0-14.143L266,311.857z"/></g></g></svg>