<svg xmlns="http://www.w3.org/2000/svg" xmlns:xlink="http://www.w3.org/1999/xlink" version="1.1" x="0px" y="0px" viewBox="0 0 512 640" style="enable-background:new 0 0 512 512;" xml:space="preserve"><g><g><path d="M486,16H26c-5.522,0-10,4.477-10,10c0,10.717,0,446.316,0,460c0,5.522,4.478,10,10,10h460c5.523,0,10-4.478,10-10    c0-13.551,0-448.837,0-460C496,20.477,491.523,16,486,16z M36,36h440v100H36V36z M36,476V156h440v320H36z"/><path d="M96,56c-16.542,0-30,13.458-30,30s13.458,30,30,30s30-13.458,30-30S112.542,56,96,56z M96,96c-5.514,0-10-4.486-10-10    s4.486-10,10-10c5.515,0,10,4.486,10,10S101.515,96,96,96z"/><path d="M186,56c-16.542,0-30,13.458-30,30s13.458,30,30,30s30-13.458,30-30S202.542,56,186,56z M186,96c-5.514,0-10-4.486-10-10    s4.486-10,10-10c5.515,0,10,4.486,10,10S191.515,96,186,96z"/><path d="M276,56c-16.541,0-30,13.458-30,30s13.459,30,30,30c16.543,0,30-13.458,30-30S292.543,56,276,56z M276,96    c-5.514,0-10-4.486-10-10s4.486-10,10-10c5.515,0,10,4.486,10,10S281.515,96,276,96z"/><path d="M319.641,198.929c-3.906-3.905-10.238-3.905-14.143,0c-156.784,156.81-149.154,148.85-150.215,150.807    c-0.365,0.692-0.552,1.158-0.733,1.733c-0.718,2.287-0.402-1.949-0.474,73.734c0,5.522,4.478,10,10,10    c75.265-0.018,70.755,0.044,71.688-0.049c2.32-0.221,4.503-1.289,6.095-2.88c2.557-2.558,144.345-144.344,148.493-148.492    c3.9-3.902,3.904-10.236,0-14.143L319.641,198.929z M234.787,411.061l-56.568-56.568l98.994-98.995l56.569,56.569L234.787,411.061    z M174.076,378.635l36.568,36.568h-36.568V378.635z M347.925,297.924l-56.569-56.569l21.213-21.213l56.569,56.569L347.925,297.924    z"/></g></g><text x="0" y="527" fill="#000000" font-size="5px" font-weight="bold" font-family="'Helvetica Neue', Helvetica, Arial-Unicode, Arial, Sans-serif">Created by Flatart</text><text x="0" y="532" fill="#000000" font-size="5px" font-weight="bold" font-family="'Helvetica Neue', Helvetica, Arial-Unicode, Arial, Sans-serif">from the Noun Project</text></svg>