<svg xmlns="http://www.w3.org/2000/svg" xmlns:xlink="http://www.w3.org/1999/xlink" xmlns:sketch="http://www.bohemiancoding.com/sketch/ns" viewBox="0 0 100 125" version="1.1" x="0px" y="0px"><g stroke="none" stroke-width="1" fill="none" fill-rule="evenodd" sketch:type="MSPage"><g sketch:type="MSArtboardGroup" ><path fill="#676767" d="M58.9926339,32 C57.3389342,32 56,30.6601521 56,29.0073661 L56,4 L19.6656805,4 C17.6411811,4 16,5.63894638 16,7.66768662 L16,90.3323134 C16,92.3579208 17.6472148,94 19.6800858,94 L80.3199142,94 C82.3523695,94 84,92.3473338 84,90.3223331 L84,32 L58.9926339,32 L58.9926339,32 Z M56.2852377,74 L64,74 L53.8570326,59.8018448 L62.2870801,48 L54.5723178,48 L49.9996514,54.4027139 L45.426985,48 L37.7094341,48 L46.1422702,59.8018448 L36,74 L43.3710629,74 L43.7119737,74 L52.7638872,74 L50.0359037,69.802658 L46.7118492,69.802658 L49.9996514,65.2003151 L56.2852377,74 L56.2852377,74 Z M84,28 L62.0049466,28 C60.8976452,28 60,27.1029738 60,25.9950534 L60,4 L84,28 L84,28 Z" sketch:type="MSShapeGroup"/></g></g></svg>