<svg xmlns="http://www.w3.org/2000/svg" xmlns:xlink="http://www.w3.org/1999/xlink" version="1.1" x="0px" y="0px" viewBox="0 0 512 640" style="enable-background:new 0 0 512 512;" xml:space="preserve"><g><g><g><path fill="#ffffff" d="M486,493H26c-3.866,0-7-3.134-7-7V26c0-3.866,3.134-7,7-7h460c3.866,0,7,3.134,7,7v460C493,489.866,489.866,493,486,493z      M33,479h446V33H33V479z"/></g><g><path fill="#ffffff" d="M486,153H26c-3.866,0-7-3.134-7-7V26c0-3.866,3.134-7,7-7h460c3.866,0,7,3.134,7,7v120C493,149.866,489.866,153,486,153z      M33,139h446V33H33V139z"/></g><g><path fill="#ffffff" d="M96,113c-14.888,0-27-12.112-27-27s12.112-27,27-27s27,12.112,27,27S110.888,113,96,113z M96,73c-7.168,0-13,5.832-13,13     s5.832,13,13,13s13-5.832,13-13S103.168,73,96,73z"/></g><g><path fill="#ffffff" d="M186,113c-14.888,0-27-12.112-27-27s12.112-27,27-27s27,12.112,27,27S200.888,113,186,113z M186,73     c-7.168,0-13,5.832-13,13s5.832,13,13,13s13-5.832,13-13S193.168,73,186,73z"/></g><g><path fill="#ffffff" d="M276,113c-14.888,0-27-12.112-27-27s12.112-27,27-27s27,12.112,27,27S290.888,113,276,113z M276,73     c-7.168,0-13,5.832-13,13s5.832,13,13,13s13-5.832,13-13S283.168,73,276,73z"/></g><g><path fill="#ffffff" d="M280.376,453h-48.75c-3.866,0-7-3.134-7-7v-30.294c-5.831-1.834-11.497-4.185-16.933-7.026l-21.43,21.431     c-2.733,2.732-7.166,2.732-9.899,0l-34.472-34.471c-1.313-1.313-2.05-3.094-2.05-4.95s0.737-3.637,2.05-4.95l21.43-21.43     c-2.841-5.438-5.192-11.104-7.026-16.934H126c-3.866,0-7-3.134-7-7v-48.75c0-3.866,3.134-7,7-7h30.294     c1.835-5.83,4.186-11.495,7.027-16.934l-21.431-21.43c-1.313-1.313-2.05-3.093-2.05-4.95s0.737-3.637,2.05-4.95l34.472-34.472     c2.733-2.733,7.166-2.733,9.899,0l21.43,21.43c5.438-2.842,11.103-5.192,16.933-7.027V186c0-3.866,3.134-7,7-7h48.75     c3.866,0,7,3.134,7,7v30.294c5.83,1.835,11.495,4.186,16.933,7.027l21.43-21.431c1.313-1.313,3.094-2.05,4.95-2.05     s3.637,0.737,4.95,2.05l34.472,34.472c1.313,1.313,2.05,3.093,2.05,4.95s-0.737,3.637-2.05,4.95l-21.431,21.43     c2.841,5.438,5.192,11.103,7.026,16.934H386c3.866,0,7,3.134,7,7v48.75c0,3.866-3.134,7-7,7h-30.294     c-1.834,5.831-4.185,11.495-7.026,16.934l21.43,21.429c1.313,1.313,2.051,3.094,2.051,4.95s-0.737,3.637-2.05,4.949     L335.64,430.11c-1.313,1.313-3.094,2.051-4.95,2.051s-3.637-0.737-4.95-2.05l-21.43-21.431     c-5.438,2.841-11.103,5.192-16.934,7.026V446C287.376,449.866,284.242,453,280.376,453z M238.626,439h34.75v-28.572     c0-3.194,2.162-5.983,5.256-6.779c8.171-2.103,16.021-5.359,23.332-9.68c2.751-1.624,6.251-1.183,8.512,1.076l20.214,20.215     l24.571-24.572l-20.214-20.213c-2.26-2.259-2.702-5.761-1.077-8.511c4.321-7.313,7.578-15.164,9.68-23.333     c0.796-3.094,3.585-5.256,6.779-5.256H379v-34.75h-28.572c-3.194,0-5.983-2.162-6.779-5.256     c-2.103-8.171-5.359-16.021-9.68-23.332c-1.625-2.751-1.183-6.252,1.076-8.512l20.215-20.213l-24.572-24.573l-20.213,20.214     c-2.261,2.26-5.76,2.701-8.511,1.077c-7.313-4.32-15.164-7.577-23.334-9.681c-3.093-0.796-5.255-3.585-5.255-6.779V193h-34.75     v28.572c0,3.194-2.162,5.983-5.255,6.779c-8.169,2.102-16.02,5.359-23.333,9.68c-2.751,1.625-6.253,1.182-8.511-1.077     l-20.214-20.214l-24.573,24.573l20.214,20.213c2.259,2.259,2.702,5.761,1.077,8.511c-4.32,7.313-7.577,15.164-9.681,23.334     c-0.796,3.093-3.585,5.255-6.779,5.255H133v34.75h28.572c3.194,0,5.983,2.162,6.779,5.255c2.102,8.169,5.359,16.02,9.681,23.334     c1.625,2.75,1.182,6.252-1.077,8.511l-20.214,20.214l24.573,24.571l20.214-20.215c2.258-2.258,5.76-2.702,8.511-1.076     c7.31,4.32,15.16,7.577,23.332,9.68c3.094,0.796,5.256,3.585,5.256,6.779V439H238.626z"/></g><g><path fill="#ffffff" d="M256,383c-36.944,0-67-30.056-67-67s30.056-67,67-67s67,30.056,67,67S292.944,383,256,383z M256,263     c-29.224,0-53,23.775-53,53s23.776,53,53,53c29.225,0,53-23.775,53-53S285.225,263,256,263z"/></g></g></g></svg>